<svg width="15" height="15" viewBox="0 0 15 15" fill="none" xmlns="http://www.w3.org/2000/svg">
    <path
        d="M10.1667 4.83308V8.16642C10.1667 8.69685 10.3774 9.20556 10.7524 9.58063C11.1275 9.9557 11.6362 10.1664 12.1667 10.1664C12.6971 10.1664 13.2058 9.9557 13.5809 9.58063C13.9559 9.20556 14.1667 8.69685 14.1667 8.16642V7.49975C14.1666 5.9951 13.6575 4.53473 12.7222 3.3561C11.7869 2.17747 10.4804 1.3499 9.01508 1.00795C7.5498 0.665995 6.01194 0.829777 4.65155 1.47266C3.29116 2.11554 2.18825 3.19972 1.52216 4.5489C0.856065 5.89808 0.665963 7.43291 0.982764 8.90383C1.29957 10.3747 2.10464 11.6952 3.26707 12.6506C4.42951 13.606 5.88094 14.14 7.38537 14.1659C8.88979 14.1917 10.3587 13.7079 11.5533 12.7931M10.1667 7.49975C10.1667 8.97251 8.97275 10.1664 7.49999 10.1664C6.02723 10.1664 4.83332 8.97251 4.83332 7.49975C4.83332 6.02699 6.02723 4.83308 7.49999 4.83308C8.97275 4.83308 10.1667 6.02699 10.1667 7.49975Z"
        stroke="#00A5D1" stroke-linecap="round" stroke-linejoin="round" />
</svg>
    