<svg width="14" height="14" viewBox="0 0 14 14" fill="none" xmlns="http://www.w3.org/2000/svg">
    <path
        d="M1.99904 4.66635V9.99969M4.99904 4.66635V9.99969M8.33238 4.66635V9.99969M11.3324 4.66635V9.99969M0.66571 11.0664L0.66571 11.5997C0.66571 11.9731 0.66571 12.1597 0.738373 12.3023C0.802288 12.4278 0.904275 12.5298 1.02972 12.5937C1.17232 12.6664 1.35901 12.6664 1.73238 12.6664H11.599C11.9724 12.6664 12.1591 12.6664 12.3017 12.5937C12.4271 12.5298 12.5291 12.4278 12.593 12.3023C12.6657 12.1597 12.6657 11.9731 12.6657 11.5997V11.0664C12.6657 10.693 12.6657 10.5063 12.593 10.3637C12.5291 10.2383 12.4271 10.1363 12.3017 10.0724C12.1591 9.99969 11.9724 9.99969 11.599 9.99969H1.73238C1.35901 9.99969 1.17232 9.99969 1.02972 10.0724C0.904275 10.1363 0.802288 10.2383 0.738373 10.3637C0.665711 10.5063 0.665711 10.693 0.66571 11.0664ZM6.43432 0.717775L1.50098 1.81407C1.20294 1.8803 1.05392 1.91342 0.942687 1.99356C0.844571 2.06424 0.767528 2.16028 0.71981 2.2714C0.665711 2.39737 0.665711 2.55003 0.66571 2.85534L0.66571 3.59969C0.66571 3.97306 0.66571 4.15974 0.738373 4.30235C0.802288 4.42779 0.904275 4.52978 1.02972 4.59369C1.17232 4.66635 1.35901 4.66635 1.73238 4.66635H11.599C11.9724 4.66635 12.1591 4.66635 12.3017 4.59369C12.4271 4.52978 12.5291 4.42779 12.593 4.30235C12.6657 4.15974 12.6657 3.97306 12.6657 3.59969V2.85534C12.6657 2.55003 12.6657 2.39737 12.6116 2.2714C12.5639 2.16029 12.4869 2.06424 12.3887 1.99356C12.2775 1.91342 12.1285 1.8803 11.8304 1.81407L6.8971 0.717775C6.81075 0.698586 6.76758 0.688992 6.72395 0.685166C6.6852 0.681768 6.64622 0.681768 6.60747 0.685166C6.56384 0.688992 6.52067 0.698586 6.43432 0.717775Z"
        stroke="#00A5D1" stroke-linecap="round" stroke-linejoin="round" />
</svg>
    