<svg width="14" height="14" viewBox="0 0 14 14" fill="none" xmlns="http://www.w3.org/2000/svg">
    <g clip-path="url(#clip0_3_1764)">
    <path d="M1.99983 5.33339C1.99983 5.18605 2.05836 5.04474 2.16255 4.94055C2.26674 4.83636 2.40805 4.77783 2.55539 4.77783H11.4443C11.5916 4.77783 11.7329 4.83636 11.8371 4.94055C11.9413 5.04474 11.9998 5.18605 11.9998 5.33339V6.4445C11.9998 6.59184 11.9413 6.73315 11.8371 6.83734C11.7329 6.94152 11.5916 7.00005 11.4443 7.00005H2.55539C2.40805 7.00005 2.26674 6.94152 2.16255 6.83734C2.05836 6.73315 1.99983 6.59184 1.99983 6.4445V5.33339Z" stroke="white" stroke-width="0.666667" stroke-linecap="round" stroke-linejoin="round"/>
    <path d="M6.99983 4.77783V12.0001" stroke="white" stroke-width="0.666667" stroke-linecap="round" stroke-linejoin="round"/>
    <path d="M10.889 7V10.8889C10.889 11.1836 10.772 11.4662 10.5636 11.6746C10.3552 11.8829 10.0726 12 9.7779 12H4.22235C3.92766 12 3.64505 11.8829 3.43667 11.6746C3.2283 11.4662 3.11124 11.1836 3.11124 10.8889V7" stroke="white" stroke-width="0.666667" stroke-linecap="round" stroke-linejoin="round"/>
    <path d="M4.50013 4.77802C4.13177 4.77802 3.7785 4.63169 3.51803 4.37122C3.25757 4.11076 3.11124 3.75749 3.11124 3.38913C3.11124 3.02078 3.25757 2.66751 3.51803 2.40704C3.7785 2.14657 4.13177 2.00024 4.50013 2.00024C5.03606 1.99091 5.56125 2.25094 6.0072 2.74644C6.45315 3.24194 6.79917 3.94991 7.00013 4.77802C7.20108 3.94991 7.5471 3.24194 7.99305 2.74644C8.439 2.25094 8.96419 1.99091 9.50013 2.00024C9.86848 2.00024 10.2218 2.14657 10.4822 2.40704C10.7427 2.66751 10.889 3.02078 10.889 3.38913C10.889 3.75749 10.7427 4.11076 10.4822 4.37122C10.2218 4.63169 9.86848 4.77802 9.50013 4.77802" stroke="white" stroke-width="0.666667" stroke-linecap="round" stroke-linejoin="round"/>
    </g>
    <defs>
    <clipPath id="clip0_3_1764">
    <rect width="13.3333" height="13.3333" fill="white" transform="translate(0.333328 0.333496)"/>
    </clipPath>
    </defs>
    </svg>
    