<svg width="18" height="20" viewBox="0 0 18 20" fill="none" xmlns="http://www.w3.org/2000/svg">
    <path
        d="M6.79514 17.4998C7.38275 18.0185 8.15462 18.3332 9 18.3332C9.84537 18.3332 10.6172 18.0185 11.2048 17.4998M14 6.6665C14 5.34042 13.4732 4.06865 12.5355 3.13097C11.5978 2.19329 10.3261 1.6665 9 1.6665C7.67391 1.6665 6.40214 2.19329 5.46446 3.13097C4.52678 4.06865 4 5.34042 4 6.6665C4 9.24166 3.35039 11.0048 2.62472 12.171C2.0126 13.1547 1.70654 13.6466 1.71777 13.7838C1.73019 13.9357 1.76238 13.9937 1.88481 14.0845C1.99538 14.1665 2.49382 14.1665 3.49071 14.1665H14.5093C15.5062 14.1665 16.0046 14.1665 16.1152 14.0845C16.2376 13.9937 16.2698 13.9357 16.2822 13.7838C16.2934 13.6466 15.9874 13.1547 15.3753 12.171C14.6496 11.0048 14 9.24166 14 6.6665Z"
        stroke="#23262F" stroke-width="1.5" stroke-linecap="round" stroke-linejoin="round" />
</svg>
    