<svg width="16" height="19" viewBox="0 0 16 19" fill="none" xmlns="http://www.w3.org/2000/svg">
    <path d="M5.50016 9.08339L7.16683 10.7501L10.9168 7.00006M14.6668 9.50006C14.6668 13.5904 10.2052 16.5654 8.58182 17.5125C8.39733 17.6201 8.30508 17.6739 8.1749 17.7018C8.07386 17.7235 7.92646 17.7235 7.82543 17.7018C7.69524 17.6739 7.603 17.6201 7.4185 17.5125C5.79513 16.5654 1.3335 13.5904 1.3335 9.50006V5.51472C1.3335 4.84846 1.3335 4.51533 1.44246 4.22898C1.53872 3.97601 1.69515 3.75029 1.89821 3.57133C2.12808 3.36875 2.43999 3.25178 3.06383 3.01785L7.532 1.34228C7.70524 1.27732 7.79187 1.24483 7.88098 1.23196C7.96003 1.22053 8.0403 1.22053 8.11934 1.23196C8.20846 1.24483 8.29508 1.27732 8.46833 1.34228L12.9365 3.01785C13.5603 3.25178 13.8722 3.36875 14.1021 3.57133C14.3052 3.75029 14.4616 3.97601 14.5579 4.22898C14.6668 4.51533 14.6668 4.84846 14.6668 5.51472V9.50006Z" stroke="#9F56D4" stroke-width="1.5" stroke-linecap="round" stroke-linejoin="round"/>
    </svg>
    