<svg width="15" height="13" viewBox="0 0 15 13" fill="none" xmlns="http://www.w3.org/2000/svg">
    <path
        d="M10.1666 10.5L11.5 11.8333L14.1666 9.16667M7.49998 8.5H4.83331C3.5908 8.5 2.96955 8.5 2.47949 8.70299C1.82608 8.97364 1.30695 9.49277 1.0363 10.1462C0.833313 10.6362 0.833313 11.2575 0.833313 12.5M9.83331 0.693839C10.8106 1.08943 11.5 2.04754 11.5 3.16667C11.5 4.28579 10.8106 5.2439 9.83331 5.63949M8.49998 3.16667C8.49998 4.63943 7.30607 5.83333 5.83331 5.83333C4.36055 5.83333 3.16665 4.63943 3.16665 3.16667C3.16665 1.69391 4.36055 0.5 5.83331 0.5C7.30607 0.5 8.49998 1.69391 8.49998 3.16667Z"
        stroke="#00A5D1" stroke-linecap="round" stroke-linejoin="round" />
</svg>
    